<svg width="118" height="110" viewBox="0 0 118 110" fill="none" xmlns="http://www.w3.org/2000/svg">
<rect width="108" height="108" rx="54" fill="#C4C4C4"/>
<path d="M54.0067 19C41.239 19 30.802 29.437 30.802 42.2047C30.802 54.9724 41.239 65.4094 54.0067 65.4094C66.7744 65.4094 77.2114 54.9724 77.2114 42.2047C77.2114 29.437 66.7744 19 54.0067 19Z" fill="white"/>
<path d="M93.8294 83.9528C93.2214 82.4328 92.4108 81.0142 91.4989 79.6969C86.8376 72.8063 79.6433 68.2465 71.5369 67.1319C70.5237 67.0306 69.409 67.2331 68.5983 67.8412C64.3424 70.9824 59.276 72.6037 54.0067 72.6037C48.7374 72.6037 43.6709 70.9824 39.415 67.8412C38.6043 67.2331 37.4897 66.9292 36.4765 67.1319C28.37 68.2465 21.0743 72.8063 16.5145 79.6969C15.6025 81.0142 14.7918 82.5342 14.1839 83.9528C13.88 84.5609 12.196 87.892 12.4999 88.5C13.3106 89.9186 13.3732 89.595 14.2852 90.8109C15.7037 92.7363 18.7777 94.8787 20.5004 96.5C21.919 97.9186 24.5004 99.5 26.0004 100.5C34.0054 106.479 43.9751 108.373 53.9054 108.373C63.8358 108.373 73.9954 106.478 82.0004 100.5C83.6216 99.2841 85.5816 98.4186 87.0004 97C88.6216 95.3787 91.0816 93.9252 92.5004 92C93.5136 90.6827 94.6895 89.9186 95.5 88.5C96.0064 87.892 94.1333 84.5607 93.8294 83.9528Z" fill="white"/>
<rect x="82" y="75" width="34" height="33" rx="16.5" fill="#5F66EA" stroke="white" stroke-width="4"/>
<path d="M103.789 87.5789H102.211C102.097 87.5789 101.997 87.5068 101.961 87.3989L101.795 86.9C101.615 86.3616 101.114 86 100.546 86H98.0852C97.5179 86 97.0163 86.3616 96.8374 86.8995L96.671 87.3989C96.6347 87.5068 96.5342 87.5789 96.4211 87.5789H94.8421C93.8263 87.5789 93 88.4053 93 89.4211V94.1579C93 95.1737 93.8263 96 94.8421 96H103.789C104.805 96 105.632 95.1737 105.632 94.1579V89.4211C105.632 88.4053 104.805 87.5789 103.789 87.5789ZM105.105 94.1579C105.105 94.8831 104.515 95.4737 103.789 95.4737H94.8421C94.1169 95.4737 93.5263 94.8831 93.5263 94.1579V89.4211C93.5263 88.6958 94.1169 88.1053 94.8421 88.1053H96.4211C96.761 88.1053 97.0621 87.8884 97.17 87.5658L97.3368 87.0658C97.4442 86.7432 97.7453 86.5263 98.0853 86.5263H100.546C100.886 86.5263 101.187 86.7431 101.295 87.0663L101.462 87.5658C101.569 87.8884 101.871 88.1053 102.211 88.1053H103.789C104.515 88.1053 105.105 88.6958 105.105 89.421V94.1579H105.105Z" fill="white" stroke="white" stroke-width="0.2"/>
<path d="M99.3156 88.6313C97.574 88.6313 96.1577 90.0477 96.1577 91.7892C96.1577 93.5308 97.574 94.9471 99.3156 94.9471C101.057 94.9471 102.473 93.5308 102.473 91.7892C102.473 90.0477 101.057 88.6313 99.3156 88.6313ZM99.3156 94.4208C97.8646 94.4208 96.684 93.2403 96.684 91.7892C96.684 90.3382 97.8646 89.1577 99.3156 89.1577C100.767 89.1577 101.947 90.3382 101.947 91.7892C101.947 93.2403 100.767 94.4208 99.3156 94.4208Z" fill="white" stroke="white" stroke-width="0.2"/>
<path d="M99.3157 89.6841C98.1547 89.6841 97.2104 90.6283 97.2104 91.7893C97.2104 91.9346 97.3284 92.0525 97.4736 92.0525C97.6189 92.0525 97.7368 91.9346 97.7368 91.7893C97.7368 90.9188 98.4452 90.2104 99.3157 90.2104C99.461 90.2104 99.5789 90.0925 99.5789 89.9472C99.5789 89.802 99.461 89.6841 99.3157 89.6841Z" fill="white" stroke="white" stroke-width="0.2"/>
</svg>
