<svg width="48" height="49" viewBox="0 0 48 49" fill="none" xmlns="http://www.w3.org/2000/svg">
<rect width="48" height="48.1157" rx="8" fill="#64E662"/>
<path d="M34 28.7689V16.6989C34 15.4989 33.02 14.6089 31.83 14.7089H31.77C29.67 14.8889 26.48 15.9589 24.7 17.0789L24.53 17.1889C24.24 17.3689 23.76 17.3689 23.47 17.1889L23.22 17.0389C21.44 15.9289 18.26 14.8689 16.16 14.6989C14.97 14.5989 14 15.4989 14 16.6889V28.7689C14 29.7289 14.78 30.6289 15.74 30.7489L16.03 30.7889C18.2 31.0789 21.55 32.1789 23.47 33.2289L23.51 33.2489C23.78 33.3989 24.21 33.3989 24.47 33.2489C26.39 32.1889 29.75 31.0789 31.93 30.7889L32.26 30.7489C33.22 30.6289 34 29.7289 34 28.7689Z" stroke="white" stroke-width="1.5" stroke-linecap="round" stroke-linejoin="round"/>
<path d="M24 17.5189V32.5189" stroke="white" stroke-width="1.5" stroke-linecap="round" stroke-linejoin="round"/>
<path d="M19.75 20.5189H17.5" stroke="white" stroke-width="1.5" stroke-linecap="round" stroke-linejoin="round"/>
<path d="M20.5 23.5189H17.5" stroke="white" stroke-width="1.5" stroke-linecap="round" stroke-linejoin="round"/>
</svg>
