<svg width="48" height="49" viewBox="0 0 48 49" fill="none" xmlns="http://www.w3.org/2000/svg">
<rect width="48" height="48.1157" rx="8" fill="#F86060"/>
<path d="M33.4702 31.0289V17.0289C33.4702 15.0289 32.4702 14.0289 30.4702 14.0289H26.4702C24.4702 14.0289 23.4702 15.0289 23.4702 17.0289V31.0289C23.4702 33.0289 24.4702 34.0289 26.4702 34.0289H30.4702C32.4702 34.0289 33.4702 33.0289 33.4702 31.0289Z" stroke="white" stroke-width="1.5" stroke-linecap="round"/>
<path d="M23.4702 18.0289H28.4702" stroke="white" stroke-width="1.5" stroke-linecap="round"/>
<path d="M23.4702 30.0289H27.4702" stroke="white" stroke-width="1.5" stroke-linecap="round"/>
<path d="M23.4702 25.9789L28.4702 26.0289" stroke="white" stroke-width="1.5" stroke-linecap="round"/>
<path d="M23.4702 22.0289H26.4702" stroke="white" stroke-width="1.5" stroke-linecap="round"/>
<path d="M17.4898 14.0289C15.8598 14.0289 14.5298 15.3589 14.5298 16.9789V29.9389C14.5298 30.3889 14.7198 31.0689 14.9498 31.4589L15.7698 32.8189C16.7098 34.3889 18.2598 34.3889 19.1998 32.8189L20.0198 31.4589C20.2498 31.0689 20.4398 30.3889 20.4398 29.9389V16.9789C20.4398 15.3589 19.1098 14.0289 17.4898 14.0289Z" stroke="white" stroke-width="1.5" stroke-linecap="round"/>
<path d="M20.4398 19.0289H14.5298" stroke="white" stroke-width="1.5" stroke-linecap="round"/>
</svg>
