<svg width="619" height="408" viewBox="0 0 619 408" fill="none" xmlns="http://www.w3.org/2000/svg">
<rect x="0.5" y="0.5" width="618" height="407" rx="7.5" fill="#F7F9FC" stroke="#F0F0F0"/>
<path d="M38.18 37.16C37.1267 37.16 36.1067 37 35.12 36.68C34.1467 36.3467 33.38 35.92 32.82 35.4L33.56 33.84C34.0933 34.32 34.7733 34.7133 35.6 35.02C36.44 35.3133 37.3 35.46 38.18 35.46C39.34 35.46 40.2067 35.2667 40.78 34.88C41.3533 34.48 41.64 33.9533 41.64 33.3C41.64 32.82 41.48 32.4333 41.16 32.14C40.8533 31.8333 40.4667 31.6 40 31.44C39.5467 31.28 38.9 31.1 38.06 30.9C37.0067 30.6467 36.1533 30.3933 35.5 30.14C34.86 29.8867 34.3067 29.5 33.84 28.98C33.3867 28.4467 33.16 27.7333 33.16 26.84C33.16 26.0933 33.3533 25.42 33.74 24.82C34.14 24.22 34.74 23.74 35.54 23.38C36.34 23.02 37.3333 22.84 38.52 22.84C39.3467 22.84 40.16 22.9467 40.96 23.16C41.76 23.3733 42.4467 23.68 43.02 24.08L42.36 25.68C41.7733 25.3067 41.1467 25.0267 40.48 24.84C39.8133 24.64 39.16 24.54 38.52 24.54C37.3867 24.54 36.5333 24.7467 35.96 25.16C35.4 25.5733 35.12 26.1067 35.12 26.76C35.12 27.24 35.28 27.6333 35.6 27.94C35.92 28.2333 36.3133 28.4667 36.78 28.64C37.26 28.8 37.9067 28.9733 38.72 29.16C39.7733 29.4133 40.62 29.6667 41.26 29.92C41.9 30.1733 42.4467 30.56 42.9 31.08C43.3667 31.6 43.6 32.3 43.6 33.18C43.6 33.9133 43.4 34.5867 43 35.2C42.6 35.8 41.9933 36.28 41.18 36.64C40.3667 36.9867 39.3667 37.16 38.18 37.16ZM52.2019 36.38C51.9219 36.62 51.5752 36.8067 51.1619 36.94C50.7485 37.06 50.3219 37.12 49.8819 37.12C48.8152 37.12 47.9885 36.8333 47.4019 36.26C46.8152 35.6867 46.5219 34.8667 46.5219 33.8V27.98H44.7219V26.4H46.5219V24.08H48.4419V26.4H51.4819V27.98H48.4419V33.72C48.4419 34.2933 48.5819 34.7333 48.8619 35.04C49.1552 35.3467 49.5685 35.5 50.1019 35.5C50.6885 35.5 51.1885 35.3333 51.6019 35L52.2019 36.38ZM58.3831 26.3C59.8498 26.3 60.9698 26.66 61.7431 27.38C62.5298 28.1 62.9231 29.1733 62.9231 30.6V37H61.1031V35.6C60.7831 36.0933 60.3231 36.4733 59.7231 36.74C59.1365 36.9933 58.4365 37.12 57.6231 37.12C56.4365 37.12 55.4831 36.8333 54.7631 36.26C54.0565 35.6867 53.7031 34.9333 53.7031 34C53.7031 33.0667 54.0431 32.32 54.7231 31.76C55.4031 31.1867 56.4831 30.9 57.9631 30.9H61.0031V30.52C61.0031 29.6933 60.7631 29.06 60.2831 28.62C59.8031 28.18 59.0965 27.96 58.1631 27.96C57.5365 27.96 56.9231 28.0667 56.3231 28.28C55.7231 28.48 55.2165 28.7533 54.8031 29.1L54.0031 27.66C54.5498 27.22 55.2031 26.8867 55.9631 26.66C56.7231 26.42 57.5298 26.3 58.3831 26.3ZM57.9431 35.64C58.6765 35.64 59.3098 35.48 59.8431 35.16C60.3765 34.8267 60.7631 34.36 61.0031 33.76V32.28H58.0431C56.4165 32.28 55.6031 32.8267 55.6031 33.92C55.6031 34.4533 55.8098 34.8733 56.2231 35.18C56.6365 35.4867 57.2098 35.64 57.9431 35.64ZM72.4363 36.38C72.1563 36.62 71.8096 36.8067 71.3963 36.94C70.9829 37.06 70.5563 37.12 70.1163 37.12C69.0496 37.12 68.2229 36.8333 67.6363 36.26C67.0496 35.6867 66.7563 34.8667 66.7563 33.8V27.98H64.9563V26.4H66.7563V24.08H68.6763V26.4H71.7163V27.98H68.6763V33.72C68.6763 34.2933 68.8163 34.7333 69.0963 35.04C69.3896 35.3467 69.8029 35.5 70.3363 35.5C70.9229 35.5 71.4229 35.3333 71.8363 35L72.4363 36.38ZM74.7575 26.4H76.6775V37H74.7575V26.4ZM75.7175 24.36C75.3442 24.36 75.0308 24.24 74.7775 24C74.5375 23.76 74.4175 23.4667 74.4175 23.12C74.4175 22.7733 74.5375 22.48 74.7775 22.24C75.0308 21.9867 75.3442 21.86 75.7175 21.86C76.0908 21.86 76.3975 21.98 76.6375 22.22C76.8908 22.4467 77.0175 22.7333 77.0175 23.08C77.0175 23.44 76.8908 23.7467 76.6375 24C76.3975 24.24 76.0908 24.36 75.7175 24.36ZM83.3834 37.12C82.5168 37.12 81.6834 37.0067 80.8834 36.78C80.0834 36.54 79.4568 36.24 79.0034 35.88L79.8034 34.36C80.2701 34.6933 80.8368 34.96 81.5034 35.16C82.1701 35.36 82.8434 35.46 83.5234 35.46C85.2034 35.46 86.0434 34.98 86.0434 34.02C86.0434 33.7 85.9301 33.4467 85.7034 33.26C85.4768 33.0733 85.1901 32.94 84.8434 32.86C84.5101 32.7667 84.0301 32.6667 83.4034 32.56C82.5501 32.4267 81.8501 32.2733 81.3034 32.1C80.7701 31.9267 80.3101 31.6333 79.9234 31.22C79.5368 30.8067 79.3434 30.2267 79.3434 29.48C79.3434 28.52 79.7434 27.7533 80.5434 27.18C81.3434 26.5933 82.4168 26.3 83.7634 26.3C84.4701 26.3 85.1768 26.3867 85.8834 26.56C86.5901 26.7333 87.1701 26.9667 87.6234 27.26L86.8034 28.78C85.9368 28.22 84.9168 27.94 83.7434 27.94C82.9301 27.94 82.3101 28.0733 81.8834 28.34C81.4568 28.6067 81.2434 28.96 81.2434 29.4C81.2434 29.7467 81.3634 30.02 81.6034 30.22C81.8434 30.42 82.1368 30.5667 82.4834 30.66C82.8434 30.7533 83.3434 30.86 83.9834 30.98C84.8368 31.1267 85.5234 31.2867 86.0434 31.46C86.5768 31.62 87.0301 31.9 87.4034 32.3C87.7768 32.7 87.9634 33.26 87.9634 33.98C87.9634 34.94 87.5501 35.7067 86.7234 36.28C85.9101 36.84 84.7968 37.12 83.3834 37.12ZM96.323 36.38C96.043 36.62 95.6963 36.8067 95.283 36.94C94.8696 37.06 94.443 37.12 94.003 37.12C92.9363 37.12 92.1096 36.8333 91.523 36.26C90.9363 35.6867 90.643 34.8667 90.643 33.8V27.98H88.843V26.4H90.643V24.08H92.563V26.4H95.603V27.98H92.563V33.72C92.563 34.2933 92.703 34.7333 92.983 35.04C93.2763 35.3467 93.6896 35.5 94.223 35.5C94.8096 35.5 95.3096 35.3333 95.723 35L96.323 36.38ZM98.6442 26.4H100.564V37H98.6442V26.4ZM99.6042 24.36C99.2309 24.36 98.9176 24.24 98.6642 24C98.4242 23.76 98.3042 23.4667 98.3042 23.12C98.3042 22.7733 98.4242 22.48 98.6642 22.24C98.9176 21.9867 99.2309 21.86 99.6042 21.86C99.9776 21.86 100.284 21.98 100.524 22.22C100.778 22.4467 100.904 22.7333 100.904 23.08C100.904 23.44 100.778 23.7467 100.524 24C100.284 24.24 99.9776 24.36 99.6042 24.36ZM108.85 37.12C107.77 37.12 106.803 36.8867 105.95 36.42C105.11 35.9533 104.45 35.3133 103.97 34.5C103.49 33.6733 103.25 32.74 103.25 31.7C103.25 30.66 103.49 29.7333 103.97 28.92C104.45 28.0933 105.11 27.4533 105.95 27C106.803 26.5333 107.77 26.3 108.85 26.3C109.81 26.3 110.663 26.4933 111.41 26.88C112.17 27.2667 112.757 27.8267 113.17 28.56L111.71 29.5C111.377 28.9933 110.963 28.6133 110.47 28.36C109.977 28.1067 109.43 27.98 108.83 27.98C108.137 27.98 107.51 28.1333 106.95 28.44C106.403 28.7467 105.97 29.1867 105.65 29.76C105.343 30.32 105.19 30.9667 105.19 31.7C105.19 32.4467 105.343 33.1067 105.65 33.68C105.97 34.24 106.403 34.6733 106.95 34.98C107.51 35.2867 108.137 35.44 108.83 35.44C109.43 35.44 109.977 35.3133 110.47 35.06C110.963 34.8067 111.377 34.4267 111.71 33.92L113.17 34.84C112.757 35.5733 112.17 36.14 111.41 36.54C110.663 36.9267 109.81 37.12 108.85 37.12Z" fill="#2E3A59"/>
<path d="M38.24 80.8C39.2533 80.8 40.1333 80.9707 40.88 81.312C41.6267 81.6427 42.2027 82.1227 42.608 82.752C43.0133 83.3707 43.216 84.1013 43.216 84.944C43.216 85.7867 43.0133 86.5173 42.608 87.136C42.2027 87.7547 41.6267 88.2347 40.88 88.576C40.1333 88.9067 39.2533 89.072 38.24 89.072H36.288V92H33.12V80.8H38.24ZM38.048 86.576C38.6987 86.576 39.1893 86.4373 39.52 86.16C39.8507 85.872 40.016 85.4667 40.016 84.944C40.016 84.4213 39.8507 84.016 39.52 83.728C39.1893 83.44 38.6987 83.296 38.048 83.296H36.288V86.576H38.048ZM47.5908 84.368C47.9001 83.9733 48.3001 83.68 48.7908 83.488C49.2921 83.2853 49.8628 83.184 50.5028 83.184V85.92C50.2254 85.888 49.9961 85.872 49.8148 85.872C49.1641 85.872 48.6521 86.048 48.2788 86.4C47.9161 86.752 47.7348 87.2907 47.7348 88.016V92H44.6948V83.328H47.5908V84.368ZM56.0311 92.144C55.1031 92.144 54.2658 91.952 53.5191 91.568C52.7725 91.184 52.1858 90.6507 51.7591 89.968C51.3431 89.2853 51.1351 88.512 51.1351 87.648C51.1351 86.7947 51.3431 86.0267 51.7591 85.344C52.1858 84.6613 52.7671 84.1333 53.5031 83.76C54.2498 83.376 55.0925 83.184 56.0311 83.184C56.9698 83.184 57.8125 83.376 58.5591 83.76C59.3058 84.1333 59.8871 84.6613 60.3031 85.344C60.7191 86.016 60.9271 86.784 60.9271 87.648C60.9271 88.512 60.7191 89.2853 60.3031 89.968C59.8871 90.6507 59.3058 91.184 58.5591 91.568C57.8125 91.952 56.9698 92.144 56.0311 92.144ZM56.0311 89.728C56.5645 89.728 57.0018 89.5467 57.3431 89.184C57.6845 88.8107 57.8551 88.2987 57.8551 87.648C57.8551 87.008 57.6845 86.5067 57.3431 86.144C57.0018 85.7813 56.5645 85.6 56.0311 85.6C55.4978 85.6 55.0605 85.7813 54.7191 86.144C54.3778 86.5067 54.2071 87.008 54.2071 87.648C54.2071 88.2987 54.3778 88.8107 54.7191 89.184C55.0605 89.5467 55.4978 89.728 56.0311 89.728ZM71.6634 83.328V90.416C71.6634 92.0267 71.226 93.232 70.3514 94.032C69.4767 94.8427 68.218 95.248 66.5754 95.248C65.722 95.248 64.922 95.152 64.1754 94.96C63.4287 94.768 62.794 94.4853 62.2714 94.112L63.3754 91.984C63.7274 92.272 64.17 92.496 64.7034 92.656C65.2474 92.8267 65.7807 92.912 66.3034 92.912C67.1034 92.912 67.69 92.736 68.0634 92.384C68.4367 92.032 68.6234 91.5093 68.6234 90.816V90.528C68.0367 91.2107 67.178 91.552 66.0474 91.552C65.2794 91.552 64.57 91.3813 63.9194 91.04C63.2687 90.688 62.7514 90.1973 62.3674 89.568C61.9834 88.928 61.7914 88.192 61.7914 87.36C61.7914 86.5387 61.9834 85.8133 62.3674 85.184C62.7514 84.544 63.2687 84.0533 63.9194 83.712C64.57 83.36 65.2794 83.184 66.0474 83.184C67.2847 83.184 68.1914 83.584 68.7674 84.384V83.328H71.6634ZM66.7674 89.136C67.3114 89.136 67.7594 88.9707 68.1114 88.64C68.474 88.3093 68.6554 87.8827 68.6554 87.36C68.6554 86.8373 68.4794 86.416 68.1274 86.096C67.7754 85.7653 67.322 85.6 66.7674 85.6C66.2127 85.6 65.754 85.7653 65.3914 86.096C65.0394 86.416 64.8634 86.8373 64.8634 87.36C64.8634 87.8827 65.0447 88.3093 65.4074 88.64C65.77 88.9707 66.2234 89.136 66.7674 89.136ZM76.5126 84.368C76.822 83.9733 77.222 83.68 77.7126 83.488C78.214 83.2853 78.7846 83.184 79.4246 83.184V85.92C79.1473 85.888 78.918 85.872 78.7366 85.872C78.086 85.872 77.574 86.048 77.2006 86.4C76.838 86.752 76.6566 87.2907 76.6566 88.016V92H73.6166V83.328H76.5126V84.368ZM89.465 87.68C89.465 87.7013 89.449 87.952 89.417 88.432H83.113C83.241 88.88 83.4863 89.2267 83.849 89.472C84.2223 89.7067 84.6863 89.824 85.241 89.824C85.657 89.824 86.0143 89.7653 86.313 89.648C86.6223 89.5307 86.9317 89.3387 87.241 89.072L88.841 90.736C87.9983 91.6747 86.7663 92.144 85.145 92.144C84.1317 92.144 83.241 91.952 82.473 91.568C81.705 91.184 81.1077 90.6507 80.681 89.968C80.265 89.2853 80.057 88.512 80.057 87.648C80.057 86.7947 80.2597 86.032 80.665 85.36C81.081 84.6773 81.6517 84.144 82.377 83.76C83.1023 83.376 83.9183 83.184 84.825 83.184C85.689 83.184 86.473 83.3653 87.177 83.728C87.881 84.08 88.4357 84.5973 88.841 85.28C89.257 85.952 89.465 86.752 89.465 87.68ZM84.841 85.344C84.3717 85.344 83.977 85.4773 83.657 85.744C83.3477 86.0107 83.1503 86.3733 83.065 86.832H86.617C86.5317 86.3733 86.329 86.0107 86.009 85.744C85.6997 85.4773 85.3103 85.344 84.841 85.344ZM94.0186 92.144C93.2933 92.144 92.5786 92.064 91.8746 91.904C91.1706 91.7333 90.6053 91.5147 90.1786 91.248L91.0906 89.168C91.4853 89.4133 91.9546 89.6107 92.4986 89.76C93.0426 89.8987 93.5813 89.968 94.1146 89.968C94.6053 89.968 94.952 89.92 95.1546 89.824C95.368 89.7173 95.4746 89.568 95.4746 89.376C95.4746 89.184 95.3466 89.0507 95.0906 88.976C94.8453 88.8907 94.4506 88.8107 93.9066 88.736C93.2133 88.6507 92.6213 88.5387 92.1306 88.4C91.6506 88.2613 91.2346 88.0053 90.8826 87.632C90.5306 87.2587 90.3546 86.736 90.3546 86.064C90.3546 85.5093 90.52 85.0187 90.8506 84.592C91.1813 84.1547 91.6613 83.8133 92.2906 83.568C92.9306 83.312 93.6933 83.184 94.5786 83.184C95.208 83.184 95.832 83.248 96.4506 83.376C97.0693 83.504 97.5866 83.6853 98.0026 83.92L97.0906 85.984C96.3226 85.5573 95.4906 85.344 94.5946 85.344C94.1146 85.344 93.7626 85.4027 93.5386 85.52C93.3146 85.6267 93.2026 85.7707 93.2026 85.952C93.2026 86.1547 93.3253 86.2987 93.5706 86.384C93.816 86.4587 94.2213 86.5387 94.7866 86.624C95.5013 86.7307 96.0933 86.8533 96.5626 86.992C97.032 87.1307 97.4373 87.3867 97.7786 87.76C98.1306 88.1227 98.3066 88.6347 98.3066 89.296C98.3066 89.84 98.1413 90.3307 97.8106 90.768C97.48 91.1947 96.9893 91.5307 96.3386 91.776C95.6986 92.0213 94.9253 92.144 94.0186 92.144ZM102.769 92.144C102.043 92.144 101.329 92.064 100.625 91.904C99.9206 91.7333 99.3553 91.5147 98.9286 91.248L99.8406 89.168C100.235 89.4133 100.705 89.6107 101.249 89.76C101.793 89.8987 102.331 89.968 102.865 89.968C103.355 89.968 103.702 89.92 103.905 89.824C104.118 89.7173 104.225 89.568 104.225 89.376C104.225 89.184 104.097 89.0507 103.841 88.976C103.595 88.8907 103.201 88.8107 102.657 88.736C101.963 88.6507 101.371 88.5387 100.881 88.4C100.401 88.2613 99.9846 88.0053 99.6326 87.632C99.2806 87.2587 99.1046 86.736 99.1046 86.064C99.1046 85.5093 99.27 85.0187 99.6006 84.592C99.9313 84.1547 100.411 83.8133 101.041 83.568C101.681 83.312 102.443 83.184 103.329 83.184C103.958 83.184 104.582 83.248 105.201 83.376C105.819 83.504 106.337 83.6853 106.753 83.92L105.841 85.984C105.073 85.5573 104.241 85.344 103.345 85.344C102.865 85.344 102.513 85.4027 102.289 85.52C102.065 85.6267 101.953 85.7707 101.953 85.952C101.953 86.1547 102.075 86.2987 102.321 86.384C102.566 86.4587 102.971 86.5387 103.537 86.624C104.251 86.7307 104.843 86.8533 105.313 86.992C105.782 87.1307 106.187 87.3867 106.529 87.76C106.881 88.1227 107.057 88.6347 107.057 89.296C107.057 89.84 106.891 90.3307 106.561 90.768C106.23 91.1947 105.739 91.5307 105.089 91.776C104.449 92.0213 103.675 92.144 102.769 92.144ZM116.175 92.144C115.45 92.144 114.735 92.064 114.031 91.904C113.327 91.7333 112.762 91.5147 112.335 91.248L113.247 89.168C113.642 89.4133 114.111 89.6107 114.655 89.76C115.199 89.8987 115.738 89.968 116.271 89.968C116.762 89.968 117.108 89.92 117.311 89.824C117.524 89.7173 117.631 89.568 117.631 89.376C117.631 89.184 117.503 89.0507 117.247 88.976C117.002 88.8907 116.607 88.8107 116.063 88.736C115.37 88.6507 114.778 88.5387 114.287 88.4C113.807 88.2613 113.391 88.0053 113.039 87.632C112.687 87.2587 112.511 86.736 112.511 86.064C112.511 85.5093 112.676 85.0187 113.007 84.592C113.338 84.1547 113.818 83.8133 114.447 83.568C115.087 83.312 115.85 83.184 116.735 83.184C117.364 83.184 117.988 83.248 118.607 83.376C119.226 83.504 119.743 83.6853 120.159 83.92L119.247 85.984C118.479 85.5573 117.647 85.344 116.751 85.344C116.271 85.344 115.919 85.4027 115.695 85.52C115.471 85.6267 115.359 85.7707 115.359 85.952C115.359 86.1547 115.482 86.2987 115.727 86.384C115.972 86.4587 116.378 86.5387 116.943 86.624C117.658 86.7307 118.25 86.8533 118.719 86.992C119.188 87.1307 119.594 87.3867 119.935 87.76C120.287 88.1227 120.463 88.6347 120.463 89.296C120.463 89.84 120.298 90.3307 119.967 90.768C119.636 91.1947 119.146 91.5307 118.495 91.776C117.855 92.0213 117.082 92.144 116.175 92.144ZM126.205 92.144C125.245 92.144 124.386 91.952 123.629 91.568C122.872 91.184 122.28 90.6507 121.853 89.968C121.437 89.2853 121.229 88.512 121.229 87.648C121.229 86.784 121.437 86.016 121.853 85.344C122.28 84.6613 122.872 84.1333 123.629 83.76C124.386 83.376 125.245 83.184 126.205 83.184C127.186 83.184 128.034 83.3973 128.749 83.824C129.464 84.24 129.97 84.8213 130.269 85.568L127.917 86.768C127.522 85.9893 126.946 85.6 126.189 85.6C125.645 85.6 125.192 85.7813 124.829 86.144C124.477 86.5067 124.301 87.008 124.301 87.648C124.301 88.2987 124.477 88.8107 124.829 89.184C125.192 89.5467 125.645 89.728 126.189 89.728C126.946 89.728 127.522 89.3387 127.917 88.56L130.269 89.76C129.97 90.5067 129.464 91.0933 128.749 91.52C128.034 91.936 127.186 92.144 126.205 92.144ZM135.672 92.144C134.744 92.144 133.906 91.952 133.16 91.568C132.413 91.184 131.826 90.6507 131.4 89.968C130.984 89.2853 130.776 88.512 130.776 87.648C130.776 86.7947 130.984 86.0267 131.4 85.344C131.826 84.6613 132.408 84.1333 133.144 83.76C133.89 83.376 134.733 83.184 135.672 83.184C136.61 83.184 137.453 83.376 138.2 83.76C138.946 84.1333 139.528 84.6613 139.944 85.344C140.36 86.016 140.568 86.784 140.568 87.648C140.568 88.512 140.36 89.2853 139.944 89.968C139.528 90.6507 138.946 91.184 138.2 91.568C137.453 91.952 136.61 92.144 135.672 92.144ZM135.672 89.728C136.205 89.728 136.642 89.5467 136.984 89.184C137.325 88.8107 137.496 88.2987 137.496 87.648C137.496 87.008 137.325 86.5067 136.984 86.144C136.642 85.7813 136.205 85.6 135.672 85.6C135.138 85.6 134.701 85.7813 134.36 86.144C134.018 86.5067 133.848 87.008 133.848 87.648C133.848 88.2987 134.018 88.8107 134.36 89.184C134.701 89.5467 135.138 89.728 135.672 89.728ZM144.872 84.368C145.181 83.9733 145.581 83.68 146.072 83.488C146.573 83.2853 147.144 83.184 147.784 83.184V85.92C147.507 85.888 147.277 85.872 147.096 85.872C146.445 85.872 145.933 86.048 145.56 86.4C145.197 86.752 145.016 87.2907 145.016 88.016V92H141.976V83.328H144.872V84.368ZM157.824 87.68C157.824 87.7013 157.808 87.952 157.776 88.432H151.472C151.6 88.88 151.846 89.2267 152.208 89.472C152.582 89.7067 153.046 89.824 153.6 89.824C154.016 89.824 154.374 89.7653 154.672 89.648C154.982 89.5307 155.291 89.3387 155.6 89.072L157.2 90.736C156.358 91.6747 155.126 92.144 153.504 92.144C152.491 92.144 151.6 91.952 150.832 91.568C150.064 91.184 149.467 90.6507 149.04 89.968C148.624 89.2853 148.416 88.512 148.416 87.648C148.416 86.7947 148.619 86.032 149.024 85.36C149.44 84.6773 150.011 84.144 150.736 83.76C151.462 83.376 152.278 83.184 153.184 83.184C154.048 83.184 154.832 83.3653 155.536 83.728C156.24 84.08 156.795 84.5973 157.2 85.28C157.616 85.952 157.824 86.752 157.824 87.68ZM153.2 85.344C152.731 85.344 152.336 85.4773 152.016 85.744C151.707 86.0107 151.51 86.3733 151.424 86.832H154.976C154.891 86.3733 154.688 86.0107 154.368 85.744C154.059 85.4773 153.67 85.344 153.2 85.344Z" fill="#2E3A59"/>
<rect x="32" y="118" width="556" height="1" fill="#F0F0F0"/>
<rect x="32" y="200" width="556" height="1" fill="#F0F0F0"/>
<rect x="32" y="282" width="556" height="1" fill="#F0F0F0"/>
<rect x="32" y="159" width="556" height="1" fill="#F0F0F0"/>
<rect x="32" y="241" width="556" height="1" fill="#F0F0F0"/>
<rect x="32" y="323" width="556" height="1" fill="#F0F0F0"/>
<g filter="url(#filter0_b_942_425)">
<rect x="355" y="159" width="46" height="249" fill="url(#paint0_linear_942_425)"/>
</g>
<path d="M34.96 380.08C34.352 380.08 33.7813 379.941 33.248 379.664C32.7253 379.376 32.304 378.981 31.984 378.48L32.48 377.936C32.7893 378.395 33.152 378.747 33.568 378.992C33.9947 379.227 34.4587 379.344 34.96 379.344C35.7067 379.344 36.2613 379.131 36.624 378.704C36.9973 378.267 37.184 377.6 37.184 376.704V369.536H33.056V368.8H38V376.704C38 377.824 37.744 378.667 37.232 379.232C36.72 379.797 35.9627 380.08 34.96 380.08ZM44.3714 371.584C45.406 371.584 46.2007 371.851 46.7554 372.384C47.31 372.907 47.5874 373.68 47.5874 374.704V380H46.8194V378.512C46.5527 379.003 46.1634 379.387 45.6514 379.664C45.1394 379.931 44.526 380.064 43.8114 380.064C42.8834 380.064 42.1474 379.845 41.6034 379.408C41.07 378.971 40.8034 378.395 40.8034 377.68C40.8034 376.987 41.0487 376.427 41.5394 376C42.0407 375.563 42.8354 375.344 43.9234 375.344H46.7874V374.672C46.7874 373.893 46.574 373.301 46.1474 372.896C45.7314 372.491 45.118 372.288 44.3074 372.288C43.7527 372.288 43.2194 372.384 42.7074 372.576C42.206 372.768 41.7794 373.024 41.4274 373.344L41.0274 372.768C41.4434 372.395 41.9447 372.107 42.5314 371.904C43.118 371.691 43.7314 371.584 44.3714 371.584ZM43.9234 379.408C44.6167 379.408 45.2034 379.248 45.6834 378.928C46.174 378.608 46.542 378.144 46.7874 377.536V375.968H43.9394C43.118 375.968 42.5207 376.117 42.1474 376.416C41.7847 376.715 41.6034 377.125 41.6034 377.648C41.6034 378.192 41.806 378.624 42.2114 378.944C42.6167 379.253 43.1874 379.408 43.9234 379.408ZM54.9635 371.584C56.0088 371.584 56.8355 371.888 57.4435 372.496C58.0515 373.104 58.3555 373.979 58.3555 375.12V380H57.5555V375.184C57.5555 374.245 57.3155 373.531 56.8355 373.04C56.3662 372.549 55.7048 372.304 54.8515 372.304C53.8702 372.304 53.0968 372.597 52.5315 373.184C51.9662 373.771 51.6835 374.56 51.6835 375.552V380H50.8835V371.648H51.6515V373.456C51.9395 372.869 52.3662 372.411 52.9315 372.08C53.5075 371.749 54.1848 371.584 54.9635 371.584Z" fill="#2E3A59"/>
<path d="M80.4045 369.536V374.32H86.3725V375.056H80.4045V380H79.5885V368.8H87.0765V369.536H80.4045ZM96.1854 376.016H89.0013C89.0227 376.667 89.188 377.248 89.4973 377.76C89.8067 378.261 90.2227 378.651 90.7453 378.928C91.2787 379.205 91.876 379.344 92.5373 379.344C93.0813 379.344 93.5827 379.248 94.0413 379.056C94.5107 378.853 94.9 378.56 95.2094 378.176L95.6734 378.704C95.3107 379.141 94.852 379.477 94.2973 379.712C93.7533 379.947 93.1613 380.064 92.5213 380.064C91.6893 380.064 90.948 379.883 90.2973 379.52C89.6467 379.157 89.1347 378.656 88.7613 378.016C88.3987 377.376 88.2173 376.645 88.2173 375.824C88.2173 375.013 88.388 374.288 88.7293 373.648C89.0813 372.997 89.5613 372.491 90.1693 372.128C90.7773 371.765 91.46 371.584 92.2174 371.584C92.9747 371.584 93.652 371.765 94.2494 372.128C94.8573 372.48 95.332 372.976 95.6734 373.616C96.0254 374.256 96.2014 374.981 96.2014 375.792L96.1854 376.016ZM92.2174 372.288C91.6307 372.288 91.1027 372.421 90.6333 372.688C90.164 372.944 89.7853 373.312 89.4973 373.792C89.22 374.261 89.06 374.795 89.0173 375.392H95.4173C95.3853 374.795 95.2253 374.261 94.9373 373.792C94.6494 373.323 94.2707 372.955 93.8014 372.688C93.332 372.421 92.804 372.288 92.2174 372.288ZM102.868 371.584C103.647 371.584 104.351 371.765 104.98 372.128C105.61 372.48 106.1 372.981 106.452 373.632C106.815 374.272 106.996 375.003 106.996 375.824C106.996 376.645 106.815 377.376 106.452 378.016C106.1 378.656 105.61 379.157 104.98 379.52C104.351 379.883 103.647 380.064 102.868 380.064C102.122 380.064 101.444 379.888 100.836 379.536C100.239 379.173 99.7749 378.672 99.4442 378.032V380H98.6762V368.128H99.4762V373.552C99.8069 372.933 100.271 372.453 100.868 372.112C101.466 371.76 102.132 371.584 102.868 371.584ZM102.82 379.344C103.46 379.344 104.036 379.195 104.548 378.896C105.06 378.597 105.46 378.181 105.748 377.648C106.047 377.115 106.196 376.507 106.196 375.824C106.196 375.141 106.047 374.533 105.748 374C105.46 373.467 105.06 373.051 104.548 372.752C104.036 372.453 103.46 372.304 102.82 372.304C102.18 372.304 101.604 372.453 101.092 372.752C100.591 373.051 100.191 373.467 99.8922 374C99.6042 374.533 99.4602 375.141 99.4602 375.824C99.4602 376.507 99.6042 377.115 99.8922 377.648C100.191 378.181 100.591 378.597 101.092 378.896C101.604 379.195 102.18 379.344 102.82 379.344Z" fill="#2E3A59"/>
<path d="M138.817 380L138.801 370.416L134.113 378.512H133.713L129.025 370.448V380H128.225V368.8H128.913L133.921 377.456L138.929 368.8H139.601L139.617 380H138.817ZM146.082 371.584C147.116 371.584 147.911 371.851 148.466 372.384C149.02 372.907 149.298 373.68 149.298 374.704V380H148.53V378.512C148.263 379.003 147.874 379.387 147.362 379.664C146.85 379.931 146.236 380.064 145.522 380.064C144.594 380.064 143.858 379.845 143.314 379.408C142.78 378.971 142.514 378.395 142.514 377.68C142.514 376.987 142.759 376.427 143.25 376C143.751 375.563 144.546 375.344 145.634 375.344H148.498V374.672C148.498 373.893 148.284 373.301 147.858 372.896C147.442 372.491 146.828 372.288 146.018 372.288C145.463 372.288 144.93 372.384 144.418 372.576C143.916 372.768 143.49 373.024 143.138 373.344L142.738 372.768C143.154 372.395 143.655 372.107 144.242 371.904C144.828 371.691 145.442 371.584 146.082 371.584ZM145.634 379.408C146.327 379.408 146.914 379.248 147.394 378.928C147.884 378.608 148.252 378.144 148.498 377.536V375.968H145.65C144.828 375.968 144.231 376.117 143.858 376.416C143.495 376.715 143.314 377.125 143.314 377.648C143.314 378.192 143.516 378.624 143.922 378.944C144.327 379.253 144.898 379.408 145.634 379.408ZM153.362 373.472C153.618 372.864 154.018 372.4 154.562 372.08C155.106 371.749 155.767 371.584 156.546 371.584V372.368L156.354 372.352C155.426 372.352 154.7 372.645 154.178 373.232C153.655 373.808 153.394 374.613 153.394 375.648V380H152.594V371.648H153.362V373.472Z" fill="#2E3A59"/>
<path d="M183.789 376.848H177.293L175.869 380H174.989L180.141 368.8H180.957L186.109 380H185.229L183.789 376.848ZM183.485 376.16L180.541 369.696L177.613 376.16H183.485ZM192.078 371.584C192.857 371.584 193.561 371.765 194.19 372.128C194.82 372.491 195.31 372.992 195.662 373.632C196.025 374.272 196.206 375.003 196.206 375.824C196.206 376.645 196.025 377.381 195.662 378.032C195.31 378.672 194.82 379.173 194.19 379.536C193.561 379.888 192.857 380.064 192.078 380.064C191.342 380.064 190.676 379.893 190.078 379.552C189.481 379.2 189.017 378.715 188.686 378.096V383.104H187.886V371.648H188.654V373.616C188.985 372.976 189.449 372.48 190.046 372.128C190.654 371.765 191.332 371.584 192.078 371.584ZM192.03 379.344C192.67 379.344 193.246 379.195 193.758 378.896C194.27 378.597 194.67 378.181 194.958 377.648C195.257 377.115 195.406 376.507 195.406 375.824C195.406 375.141 195.257 374.533 194.958 374C194.67 373.467 194.27 373.051 193.758 372.752C193.246 372.453 192.67 372.304 192.03 372.304C191.39 372.304 190.814 372.453 190.302 372.752C189.801 373.051 189.401 373.467 189.102 374C188.814 374.533 188.67 375.141 188.67 375.824C188.67 376.507 188.814 377.115 189.102 377.648C189.401 378.181 189.801 378.597 190.302 378.896C190.814 379.195 191.39 379.344 192.03 379.344ZM199.451 373.472C199.707 372.864 200.107 372.4 200.651 372.08C201.195 371.749 201.857 371.584 202.635 371.584V372.368L202.443 372.352C201.515 372.352 200.79 372.645 200.267 373.232C199.745 373.808 199.483 374.613 199.483 375.648V380H198.683V371.648H199.451V373.472Z" fill="#2E3A59"/>
<path d="M234.089 380L234.073 370.416L229.385 378.512H228.985L224.297 370.448V380H223.497V368.8H224.185L229.193 377.456L234.201 368.8H234.873L234.889 380H234.089ZM241.354 371.584C242.389 371.584 243.184 371.851 243.738 372.384C244.293 372.907 244.57 373.68 244.57 374.704V380H243.802V378.512C243.536 379.003 243.146 379.387 242.634 379.664C242.122 379.931 241.509 380.064 240.794 380.064C239.866 380.064 239.13 379.845 238.586 379.408C238.053 378.971 237.786 378.395 237.786 377.68C237.786 376.987 238.032 376.427 238.522 376C239.024 375.563 239.818 375.344 240.906 375.344H243.77V374.672C243.77 373.893 243.557 373.301 243.13 372.896C242.714 372.491 242.101 372.288 241.29 372.288C240.736 372.288 240.202 372.384 239.69 372.576C239.189 372.768 238.762 373.024 238.41 373.344L238.01 372.768C238.426 372.395 238.928 372.107 239.514 371.904C240.101 371.691 240.714 371.584 241.354 371.584ZM240.906 379.408C241.6 379.408 242.186 379.248 242.666 378.928C243.157 378.608 243.525 378.144 243.77 377.536V375.968H240.922C240.101 375.968 239.504 376.117 239.13 376.416C238.768 376.715 238.586 377.125 238.586 377.648C238.586 378.192 238.789 378.624 239.194 378.944C239.6 379.253 240.17 379.408 240.906 379.408ZM254.414 371.648L250.126 381.136C249.806 381.872 249.433 382.395 249.006 382.704C248.59 383.013 248.094 383.168 247.518 383.168C247.134 383.168 246.771 383.104 246.43 382.976C246.099 382.848 245.817 382.661 245.582 382.416L245.982 381.808C246.409 382.245 246.926 382.464 247.534 382.464C247.939 382.464 248.286 382.352 248.574 382.128C248.862 381.904 249.129 381.52 249.374 380.976L249.822 379.968L246.062 371.648H246.91L250.254 379.12L253.598 371.648H254.414Z" fill="#2E3A59"/>
<path d="M275.142 380.08C274.534 380.08 273.963 379.941 273.43 379.664C272.907 379.376 272.486 378.981 272.166 378.48L272.662 377.936C272.971 378.395 273.334 378.747 273.75 378.992C274.177 379.227 274.641 379.344 275.142 379.344C275.889 379.344 276.443 379.131 276.806 378.704C277.179 378.267 277.366 377.6 277.366 376.704V369.536H273.238V368.8H278.182V376.704C278.182 377.824 277.926 378.667 277.414 379.232C276.902 379.797 276.145 380.08 275.142 380.08ZM289.049 371.648V380H288.281V378.208C288.004 378.795 287.593 379.253 287.049 379.584C286.505 379.904 285.865 380.064 285.129 380.064C284.041 380.064 283.188 379.76 282.569 379.152C281.951 378.544 281.641 377.669 281.641 376.528V371.648H282.441V376.464C282.441 377.403 282.681 378.117 283.161 378.608C283.641 379.099 284.319 379.344 285.193 379.344C286.132 379.344 286.873 379.051 287.417 378.464C287.972 377.877 288.249 377.088 288.249 376.096V371.648H289.049ZM296.52 371.584C297.566 371.584 298.392 371.888 299 372.496C299.608 373.104 299.912 373.979 299.912 375.12V380H299.112V375.184C299.112 374.245 298.872 373.531 298.392 373.04C297.923 372.549 297.262 372.304 296.408 372.304C295.427 372.304 294.654 372.597 294.088 373.184C293.523 373.771 293.24 374.56 293.24 375.552V380H292.44V371.648H293.208V373.456C293.496 372.869 293.923 372.411 294.488 372.08C295.064 371.749 295.742 371.584 296.52 371.584Z" fill="#2E3A59"/>
<path d="M322.778 380.08C322.17 380.08 321.599 379.941 321.066 379.664C320.543 379.376 320.122 378.981 319.802 378.48L320.298 377.936C320.607 378.395 320.97 378.747 321.386 378.992C321.813 379.227 322.277 379.344 322.778 379.344C323.525 379.344 324.079 379.131 324.442 378.704C324.815 378.267 325.002 377.6 325.002 376.704V369.536H320.874V368.8H325.818V376.704C325.818 377.824 325.562 378.667 325.05 379.232C324.538 379.797 323.781 380.08 322.778 380.08ZM336.685 371.648V380H335.917V378.208C335.64 378.795 335.229 379.253 334.685 379.584C334.141 379.904 333.501 380.064 332.765 380.064C331.677 380.064 330.824 379.76 330.205 379.152C329.587 378.544 329.277 377.669 329.277 376.528V371.648H330.077V376.464C330.077 377.403 330.317 378.117 330.797 378.608C331.277 379.099 331.955 379.344 332.829 379.344C333.768 379.344 334.509 379.051 335.053 378.464C335.608 377.877 335.885 377.088 335.885 376.096V371.648H336.685ZM340.077 368.128H340.877V380H340.077V368.128Z" fill="#2E3A59"/>
<path d="M369.335 376.848H362.839L361.415 380H360.535L365.687 368.8H366.503L371.655 380H370.775L369.335 376.848ZM369.031 376.16L366.087 369.696L363.159 376.16H369.031ZM380.588 371.648V380H379.82V378.208C379.542 378.795 379.132 379.253 378.588 379.584C378.044 379.904 377.404 380.064 376.668 380.064C375.58 380.064 374.726 379.76 374.108 379.152C373.489 378.544 373.18 377.669 373.18 376.528V371.648H373.98V376.464C373.98 377.403 374.22 378.117 374.7 378.608C375.18 379.099 375.857 379.344 376.732 379.344C377.67 379.344 378.412 379.051 378.956 378.464C379.51 377.877 379.788 377.088 379.788 376.096V371.648H380.588ZM391.499 371.648V379.104C391.499 380.491 391.163 381.515 390.491 382.176C389.819 382.837 388.805 383.168 387.451 383.168C386.683 383.168 385.957 383.051 385.275 382.816C384.592 382.581 384.043 382.256 383.627 381.84L384.059 381.232C384.475 381.616 384.976 381.915 385.563 382.128C386.149 382.341 386.773 382.448 387.435 382.448C388.544 382.448 389.365 382.181 389.899 381.648C390.432 381.125 390.699 380.309 390.699 379.2V377.792C390.357 378.4 389.883 378.869 389.275 379.2C388.667 379.531 387.984 379.696 387.227 379.696C386.448 379.696 385.739 379.525 385.099 379.184C384.469 378.832 383.973 378.347 383.611 377.728C383.248 377.109 383.067 376.411 383.067 375.632C383.067 374.853 383.248 374.155 383.611 373.536C383.973 372.917 384.469 372.437 385.099 372.096C385.739 371.755 386.448 371.584 387.227 371.584C387.995 371.584 388.688 371.755 389.307 372.096C389.925 372.437 390.4 372.917 390.731 373.536V371.648H391.499ZM387.291 378.976C387.941 378.976 388.528 378.837 389.051 378.56C389.573 378.272 389.979 377.877 390.267 377.376C390.565 376.864 390.715 376.283 390.715 375.632C390.715 374.981 390.565 374.405 390.267 373.904C389.979 373.403 389.573 373.013 389.051 372.736C388.528 372.448 387.941 372.304 387.291 372.304C386.64 372.304 386.053 372.448 385.531 372.736C385.019 373.013 384.613 373.403 384.315 373.904C384.027 374.405 383.883 374.981 383.883 375.632C383.883 376.283 384.027 376.864 384.315 377.376C384.613 377.877 385.019 378.272 385.531 378.56C386.053 378.837 386.64 378.976 387.291 378.976Z" fill="white"/>
<path d="M415.987 380.08C415.165 380.08 414.381 379.941 413.635 379.664C412.899 379.376 412.323 379.008 411.907 378.56L412.275 377.952C412.669 378.368 413.197 378.709 413.859 378.976C414.531 379.232 415.235 379.36 415.971 379.36C417.037 379.36 417.843 379.157 418.387 378.752C418.931 378.347 419.203 377.819 419.203 377.168C419.203 376.667 419.059 376.267 418.771 375.968C418.483 375.669 418.125 375.44 417.699 375.28C417.272 375.12 416.696 374.955 415.971 374.784C415.149 374.581 414.488 374.384 413.987 374.192C413.496 374 413.075 373.707 412.723 373.312C412.381 372.907 412.211 372.368 412.211 371.696C412.211 371.152 412.355 370.656 412.643 370.208C412.931 369.749 413.368 369.387 413.955 369.12C414.552 368.853 415.293 368.72 416.179 368.72C416.797 368.72 417.405 368.811 418.003 368.992C418.6 369.173 419.117 369.419 419.555 369.728L419.251 370.384C418.803 370.075 418.307 369.84 417.763 369.68C417.229 369.52 416.701 369.44 416.179 369.44C415.144 369.44 414.36 369.648 413.827 370.064C413.293 370.48 413.027 371.019 413.027 371.68C413.027 372.181 413.171 372.581 413.459 372.88C413.747 373.179 414.104 373.408 414.531 373.568C414.957 373.728 415.539 373.899 416.275 374.08C417.096 374.283 417.752 374.48 418.243 374.672C418.733 374.864 419.149 375.157 419.491 375.552C419.843 375.936 420.019 376.459 420.019 377.12C420.019 377.664 419.869 378.16 419.571 378.608C419.283 379.056 418.835 379.413 418.227 379.68C417.619 379.947 416.872 380.08 415.987 380.08ZM429.593 376.016H422.409C422.43 376.667 422.595 377.248 422.905 377.76C423.214 378.261 423.63 378.651 424.153 378.928C424.686 379.205 425.283 379.344 425.945 379.344C426.489 379.344 426.99 379.248 427.449 379.056C427.918 378.853 428.307 378.56 428.617 378.176L429.081 378.704C428.718 379.141 428.259 379.477 427.705 379.712C427.161 379.947 426.569 380.064 425.929 380.064C425.097 380.064 424.355 379.883 423.705 379.52C423.054 379.157 422.542 378.656 422.169 378.016C421.806 377.376 421.625 376.645 421.625 375.824C421.625 375.013 421.795 374.288 422.137 373.648C422.489 372.997 422.969 372.491 423.577 372.128C424.185 371.765 424.867 371.584 425.625 371.584C426.382 371.584 427.059 371.765 427.657 372.128C428.265 372.48 428.739 372.976 429.081 373.616C429.433 374.256 429.609 374.981 429.609 375.792L429.593 376.016ZM425.625 372.288C425.038 372.288 424.51 372.421 424.041 372.688C423.571 372.944 423.193 373.312 422.905 373.792C422.627 374.261 422.467 374.795 422.425 375.392H428.825C428.793 374.795 428.633 374.261 428.345 373.792C428.057 373.323 427.678 372.955 427.209 372.688C426.739 372.421 426.211 372.288 425.625 372.288ZM436.276 371.584C437.054 371.584 437.758 371.765 438.388 372.128C439.017 372.491 439.508 372.992 439.86 373.632C440.222 374.272 440.404 375.003 440.404 375.824C440.404 376.645 440.222 377.381 439.86 378.032C439.508 378.672 439.017 379.173 438.388 379.536C437.758 379.888 437.054 380.064 436.276 380.064C435.54 380.064 434.873 379.893 434.276 379.552C433.678 379.2 433.214 378.715 432.884 378.096V383.104H432.084V371.648H432.852V373.616C433.182 372.976 433.646 372.48 434.244 372.128C434.852 371.765 435.529 371.584 436.276 371.584ZM436.228 379.344C436.868 379.344 437.444 379.195 437.956 378.896C438.468 378.597 438.868 378.181 439.156 377.648C439.454 377.115 439.604 376.507 439.604 375.824C439.604 375.141 439.454 374.533 439.156 374C438.868 373.467 438.468 373.051 437.956 372.752C437.444 372.453 436.868 372.304 436.228 372.304C435.588 372.304 435.012 372.453 434.5 372.752C433.998 373.051 433.598 373.467 433.3 374C433.012 374.533 432.868 375.141 432.868 375.824C432.868 376.507 433.012 377.115 433.3 377.648C433.598 378.181 433.998 378.597 434.5 378.896C435.012 379.195 435.588 379.344 436.228 379.344Z" fill="#2E3A59"/>
<path d="M466.431 380.08C465.333 380.08 464.341 379.835 463.455 379.344C462.57 378.843 461.871 378.16 461.359 377.296C460.858 376.432 460.607 375.467 460.607 374.4C460.607 373.333 460.858 372.368 461.359 371.504C461.871 370.64 462.57 369.963 463.455 369.472C464.341 368.971 465.333 368.72 466.431 368.72C467.53 368.72 468.522 368.965 469.407 369.456C470.293 369.947 470.986 370.624 471.487 371.488C471.999 372.352 472.255 373.323 472.255 374.4C472.255 375.477 471.999 376.448 471.487 377.312C470.986 378.176 470.293 378.853 469.407 379.344C468.522 379.835 467.53 380.08 466.431 380.08ZM466.431 379.328C467.37 379.328 468.218 379.115 468.975 378.688C469.733 378.261 470.33 377.675 470.767 376.928C471.205 376.171 471.423 375.328 471.423 374.4C471.423 373.472 471.205 372.635 470.767 371.888C470.33 371.131 469.733 370.539 468.975 370.112C468.218 369.685 467.37 369.472 466.431 369.472C465.493 369.472 464.639 369.685 463.871 370.112C463.114 370.539 462.517 371.131 462.079 371.888C461.642 372.635 461.423 373.472 461.423 374.4C461.423 375.328 461.642 376.171 462.079 376.928C462.517 377.675 463.114 378.261 463.871 378.688C464.639 379.115 465.493 379.328 466.431 379.328ZM478.142 380.064C477.331 380.064 476.606 379.883 475.966 379.52C475.326 379.157 474.824 378.656 474.462 378.016C474.099 377.365 473.918 376.635 473.918 375.824C473.918 375.003 474.099 374.272 474.462 373.632C474.824 372.981 475.326 372.48 475.966 372.128C476.606 371.765 477.331 371.584 478.142 371.584C478.814 371.584 479.422 371.717 479.966 371.984C480.52 372.24 480.968 372.619 481.31 373.12L480.718 373.552C480.419 373.136 480.046 372.827 479.598 372.624C479.16 372.411 478.675 372.304 478.142 372.304C477.491 372.304 476.904 372.453 476.382 372.752C475.87 373.04 475.464 373.451 475.166 373.984C474.878 374.517 474.734 375.131 474.734 375.824C474.734 376.517 474.878 377.131 475.166 377.664C475.464 378.197 475.87 378.613 476.382 378.912C476.904 379.2 477.491 379.344 478.142 379.344C478.675 379.344 479.16 379.243 479.598 379.04C480.046 378.827 480.419 378.512 480.718 378.096L481.31 378.528C480.968 379.029 480.52 379.413 479.966 379.68C479.422 379.936 478.814 380.064 478.142 380.064ZM487.942 379.472C487.74 379.664 487.484 379.813 487.174 379.92C486.876 380.016 486.561 380.064 486.23 380.064C485.505 380.064 484.945 379.867 484.55 379.472C484.156 379.067 483.958 378.507 483.958 377.792V372.336H482.422V371.648H483.958V369.824H484.758V371.648H487.414V372.336H484.758V377.712C484.758 378.256 484.886 378.672 485.142 378.96C485.409 379.237 485.798 379.376 486.31 379.376C486.833 379.376 487.265 379.221 487.606 378.912L487.942 379.472Z" fill="#2E3A59"/>
<path d="M517.436 368.8V380H516.764L509.132 370.272V380H508.316V368.8H509.004L516.62 378.528V368.8H517.436ZM524.355 380.064C523.565 380.064 522.851 379.883 522.211 379.52C521.581 379.157 521.085 378.656 520.723 378.016C520.36 377.365 520.179 376.635 520.179 375.824C520.179 375.013 520.36 374.288 520.723 373.648C521.085 372.997 521.581 372.491 522.211 372.128C522.851 371.765 523.565 371.584 524.355 371.584C525.144 371.584 525.853 371.765 526.483 372.128C527.123 372.491 527.624 372.997 527.987 373.648C528.349 374.288 528.531 375.013 528.531 375.824C528.531 376.635 528.349 377.365 527.987 378.016C527.624 378.656 527.123 379.157 526.483 379.52C525.853 379.883 525.144 380.064 524.355 380.064ZM524.355 379.344C524.995 379.344 525.565 379.195 526.067 378.896C526.579 378.597 526.979 378.181 527.267 377.648C527.565 377.115 527.715 376.507 527.715 375.824C527.715 375.141 527.565 374.533 527.267 374C526.979 373.467 526.579 373.051 526.067 372.752C525.565 372.453 524.995 372.304 524.355 372.304C523.715 372.304 523.139 372.453 522.627 372.752C522.125 373.051 521.725 373.467 521.427 374C521.139 374.533 520.995 375.141 520.995 375.824C520.995 376.507 521.139 377.115 521.427 377.648C521.725 378.181 522.125 378.597 522.627 378.896C523.139 379.195 523.715 379.344 524.355 379.344ZM537.482 371.648L533.706 380H532.89L529.13 371.648H529.978L533.306 379.12L536.666 371.648H537.482Z" fill="#2E3A59"/>
<path d="M557.952 368.8H562.384C563.547 368.8 564.576 369.04 565.472 369.52C566.379 370 567.083 370.667 567.584 371.52C568.085 372.363 568.336 373.323 568.336 374.4C568.336 375.477 568.085 376.443 567.584 377.296C567.083 378.139 566.379 378.8 565.472 379.28C564.576 379.76 563.547 380 562.384 380H557.952V368.8ZM562.32 379.264C563.355 379.264 564.267 379.061 565.056 378.656C565.845 378.24 566.453 377.664 566.88 376.928C567.307 376.192 567.52 375.349 567.52 374.4C567.52 373.451 567.307 372.608 566.88 371.872C566.453 371.136 565.845 370.565 565.056 370.16C564.267 369.744 563.355 369.536 562.32 369.536H558.768V379.264H562.32ZM577.971 376.016H570.787C570.808 376.667 570.973 377.248 571.283 377.76C571.592 378.261 572.008 378.651 572.531 378.928C573.064 379.205 573.661 379.344 574.323 379.344C574.867 379.344 575.368 379.248 575.827 379.056C576.296 378.853 576.685 378.56 576.995 378.176L577.459 378.704C577.096 379.141 576.637 379.477 576.083 379.712C575.539 379.947 574.947 380.064 574.307 380.064C573.475 380.064 572.733 379.883 572.083 379.52C571.432 379.157 570.92 378.656 570.547 378.016C570.184 377.376 570.003 376.645 570.003 375.824C570.003 375.013 570.173 374.288 570.515 373.648C570.867 372.997 571.347 372.491 571.955 372.128C572.563 371.765 573.245 371.584 574.003 371.584C574.76 371.584 575.437 371.765 576.035 372.128C576.643 372.48 577.117 372.976 577.459 373.616C577.811 374.256 577.987 374.981 577.987 375.792L577.971 376.016ZM574.003 372.288C573.416 372.288 572.888 372.421 572.419 372.688C571.949 372.944 571.571 373.312 571.283 373.792C571.005 374.261 570.845 374.795 570.803 375.392H577.203C577.171 374.795 577.011 374.261 576.723 373.792C576.435 373.323 576.056 372.955 575.587 372.688C575.117 372.421 574.589 372.288 574.003 372.288ZM583.774 380.064C582.963 380.064 582.238 379.883 581.598 379.52C580.958 379.157 580.456 378.656 580.094 378.016C579.731 377.365 579.55 376.635 579.55 375.824C579.55 375.003 579.731 374.272 580.094 373.632C580.456 372.981 580.958 372.48 581.598 372.128C582.238 371.765 582.963 371.584 583.774 371.584C584.446 371.584 585.054 371.717 585.598 371.984C586.152 372.24 586.6 372.619 586.942 373.12L586.35 373.552C586.051 373.136 585.678 372.827 585.23 372.624C584.792 372.411 584.307 372.304 583.774 372.304C583.123 372.304 582.536 372.453 582.014 372.752C581.502 373.04 581.096 373.451 580.798 373.984C580.51 374.517 580.366 375.131 580.366 375.824C580.366 376.517 580.51 377.131 580.798 377.664C581.096 378.197 581.502 378.613 582.014 378.912C582.536 379.2 583.123 379.344 583.774 379.344C584.307 379.344 584.792 379.243 585.23 379.04C585.678 378.827 586.051 378.512 586.35 378.096L586.942 378.528C586.6 379.029 586.152 379.413 585.598 379.68C585.054 379.936 584.446 380.064 583.774 380.064Z" fill="#2E3A59"/>
<path d="M33 282.977C33 282.977 112.949 285.209 186.385 245.486C363.822 149.508 360.751 286.269 444.599 261.482C514.197 240.908 588 183 588 183" stroke="#3366FF" stroke-width="2" stroke-linecap="round"/>
<path d="M33 283C33 283 127.435 210.472 194.856 210.296C242.579 210.171 277.591 277.887 323.216 263.99C370.193 249.68 367.704 191.969 414.916 178.443C453.291 167.45 477.901 200.762 517.216 196.85C567.261 191.87 588 160 588 160" stroke="#00D68F" stroke-width="2" stroke-linecap="round"/>
<circle cx="378" cy="207" r="5.5" fill="#00D68F" stroke="white"/>
<path d="M549.744 94.976V96H541.824V84.8H549.504V85.824H543.008V89.808H548.8V90.816H543.008V94.976H549.744ZM557.413 96L554.741 92.48L552.053 96H550.773L554.101 91.68L550.933 87.584H552.213L554.741 90.88L557.269 87.584H558.517L555.349 91.68L558.709 96H557.413ZM563.387 87.52C564.486 87.52 565.329 87.7973 565.915 88.352C566.502 88.896 566.795 89.7067 566.795 90.784V96H565.707V94.688C565.451 95.1253 565.073 95.4667 564.571 95.712C564.081 95.9573 563.494 96.08 562.811 96.08C561.873 96.08 561.126 95.856 560.571 95.408C560.017 94.96 559.739 94.368 559.739 93.632C559.739 92.9173 559.995 92.3413 560.507 91.904C561.03 91.4667 561.857 91.248 562.987 91.248H565.659V90.736C565.659 90.0107 565.457 89.4613 565.051 89.088C564.646 88.704 564.054 88.512 563.275 88.512C562.742 88.512 562.23 88.6027 561.739 88.784C561.249 88.9547 560.827 89.1947 560.475 89.504L559.963 88.656C560.39 88.2933 560.902 88.016 561.499 87.824C562.097 87.6213 562.726 87.52 563.387 87.52ZM562.987 95.184C563.627 95.184 564.177 95.04 564.635 94.752C565.094 94.4533 565.435 94.0267 565.659 93.472V92.096H563.019C561.579 92.096 560.859 92.5973 560.859 93.6C560.859 94.0907 561.046 94.48 561.419 94.768C561.793 95.0453 562.315 95.184 562.987 95.184ZM580.377 87.52C581.433 87.52 582.26 87.824 582.857 88.432C583.465 89.04 583.769 89.936 583.769 91.12V96H582.633V91.232C582.633 90.3573 582.42 89.6907 581.993 89.232C581.577 88.7733 580.985 88.544 580.217 88.544C579.342 88.544 578.654 88.816 578.153 89.36C577.652 89.8933 577.401 90.6347 577.401 91.584V96H576.265V91.232C576.265 90.3573 576.052 89.6907 575.625 89.232C575.209 88.7733 574.612 88.544 573.833 88.544C572.969 88.544 572.281 88.816 571.769 89.36C571.268 89.8933 571.017 90.6347 571.017 91.584V96H569.881V87.584H570.969V89.12C571.268 88.608 571.684 88.2133 572.217 87.936C572.75 87.6587 573.364 87.52 574.057 87.52C574.761 87.52 575.369 87.6693 575.881 87.968C576.404 88.2667 576.793 88.7093 577.049 89.296C577.358 88.7413 577.801 88.3093 578.377 88C578.964 87.68 579.63 87.52 580.377 87.52ZM589.106 96.08C588.423 96.08 587.767 95.984 587.138 95.792C586.519 95.5893 586.034 95.3387 585.682 95.04L586.194 94.144C586.546 94.4213 586.988 94.6507 587.522 94.832C588.055 95.0027 588.61 95.088 589.186 95.088C589.954 95.088 590.519 94.9707 590.882 94.736C591.255 94.4907 591.442 94.1493 591.442 93.712C591.442 93.4027 591.34 93.1627 591.138 92.992C590.935 92.8107 590.679 92.6773 590.37 92.592C590.06 92.496 589.65 92.4053 589.138 92.32C588.455 92.192 587.906 92.064 587.49 91.936C587.074 91.7973 586.716 91.568 586.418 91.248C586.13 90.928 585.986 90.4853 585.986 89.92C585.986 89.216 586.279 88.64 586.866 88.192C587.452 87.744 588.268 87.52 589.314 87.52C589.858 87.52 590.402 87.5947 590.946 87.744C591.49 87.8827 591.938 88.0693 592.29 88.304L591.794 89.216C591.1 88.736 590.274 88.496 589.314 88.496C588.588 88.496 588.039 88.624 587.666 88.88C587.303 89.136 587.122 89.472 587.122 89.888C587.122 90.208 587.223 90.464 587.426 90.656C587.639 90.848 587.9 90.992 588.21 91.088C588.519 91.1733 588.946 91.264 589.49 91.36C590.162 91.488 590.7 91.616 591.106 91.744C591.511 91.872 591.858 92.0907 592.146 92.4C592.434 92.7093 592.578 93.136 592.578 93.68C592.578 94.416 592.268 95.0027 591.65 95.44C591.042 95.8667 590.194 96.08 589.106 96.08Z" fill="#2E3A59"/>
<circle cx="529" cy="91" r="4" fill="#00D68F"/>
<path d="M408.848 93.008H402.608L401.264 96H400.032L405.152 84.8H406.32L411.44 96H410.192L408.848 93.008ZM408.416 92.048L405.728 86.032L403.04 92.048H408.416ZM419.703 87.584L415.959 96H414.791L411.063 87.584H412.247L415.399 94.752L418.583 87.584H419.703ZM423.997 87.52C425.095 87.52 425.938 87.7973 426.525 88.352C427.111 88.896 427.405 89.7067 427.405 90.784V96H426.317V94.688C426.061 95.1253 425.682 95.4667 425.181 95.712C424.69 95.9573 424.103 96.08 423.421 96.08C422.482 96.08 421.735 95.856 421.181 95.408C420.626 94.96 420.349 94.368 420.349 93.632C420.349 92.9173 420.605 92.3413 421.117 91.904C421.639 91.4667 422.466 91.248 423.597 91.248H426.269V90.736C426.269 90.0107 426.066 89.4613 425.661 89.088C425.255 88.704 424.663 88.512 423.885 88.512C423.351 88.512 422.839 88.6027 422.349 88.784C421.858 88.9547 421.437 89.1947 421.085 89.504L420.573 88.656C420.999 88.2933 421.511 88.016 422.109 87.824C422.706 87.6213 423.335 87.52 423.997 87.52ZM423.597 95.184C424.237 95.184 424.786 95.04 425.245 94.752C425.703 94.4533 426.045 94.0267 426.269 93.472V92.096H423.629C422.189 92.096 421.469 92.5973 421.469 93.6C421.469 94.0907 421.655 94.48 422.029 94.768C422.402 95.0453 422.925 95.184 423.597 95.184ZM431.578 89.232C431.845 88.6667 432.24 88.24 432.762 87.952C433.296 87.664 433.952 87.52 434.73 87.52V88.624L434.458 88.608C433.573 88.608 432.88 88.88 432.378 89.424C431.877 89.968 431.626 90.7307 431.626 91.712V96H430.49V87.584H431.578V89.232ZM439.716 87.52C440.814 87.52 441.657 87.7973 442.244 88.352C442.83 88.896 443.124 89.7067 443.124 90.784V96H442.036V94.688C441.78 95.1253 441.401 95.4667 440.9 95.712C440.409 95.9573 439.822 96.08 439.14 96.08C438.201 96.08 437.454 95.856 436.9 95.408C436.345 94.96 436.068 94.368 436.068 93.632C436.068 92.9173 436.324 92.3413 436.836 91.904C437.358 91.4667 438.185 91.248 439.316 91.248H441.988V90.736C441.988 90.0107 441.785 89.4613 441.38 89.088C440.974 88.704 440.382 88.512 439.604 88.512C439.07 88.512 438.558 88.6027 438.068 88.784C437.577 88.9547 437.156 89.1947 436.804 89.504L436.292 88.656C436.718 88.2933 437.23 88.016 437.828 87.824C438.425 87.6213 439.054 87.52 439.716 87.52ZM439.316 95.184C439.956 95.184 440.505 95.04 440.964 94.752C441.422 94.4533 441.764 94.0267 441.988 93.472V92.096H439.348C437.908 92.096 437.188 92.5973 437.188 93.6C437.188 94.0907 437.374 94.48 437.748 94.768C438.121 95.0453 438.644 95.184 439.316 95.184ZM454.032 87.584V94.976C454.032 96.4053 453.68 97.4613 452.976 98.144C452.283 98.8373 451.232 99.184 449.824 99.184C449.046 99.184 448.304 99.0667 447.6 98.832C446.907 98.608 446.342 98.2933 445.904 97.888L446.48 97.024C446.886 97.3867 447.376 97.6693 447.952 97.872C448.539 98.0747 449.152 98.176 449.792 98.176C450.859 98.176 451.643 97.9253 452.144 97.424C452.646 96.9333 452.896 96.1653 452.896 95.12V94.048C452.544 94.5813 452.08 94.9867 451.504 95.264C450.939 95.5413 450.31 95.68 449.616 95.68C448.827 95.68 448.107 95.5093 447.456 95.168C446.816 94.816 446.31 94.3307 445.936 93.712C445.574 93.0827 445.392 92.3733 445.392 91.584C445.392 90.7947 445.574 90.0907 445.936 89.472C446.31 88.8533 446.816 88.3733 447.456 88.032C448.096 87.6907 448.816 87.52 449.616 87.52C450.331 87.52 450.976 87.664 451.552 87.952C452.128 88.24 452.592 88.656 452.944 89.2V87.584H454.032ZM449.728 94.672C450.336 94.672 450.886 94.544 451.376 94.288C451.867 94.0213 452.246 93.6533 452.512 93.184C452.79 92.7147 452.928 92.1813 452.928 91.584C452.928 90.9867 452.79 90.4587 452.512 90C452.246 89.5307 451.867 89.168 451.376 88.912C450.896 88.6453 450.347 88.512 449.728 88.512C449.12 88.512 448.571 88.64 448.08 88.896C447.6 89.152 447.222 89.5147 446.944 89.984C446.678 90.4533 446.544 90.9867 446.544 91.584C446.544 92.1813 446.678 92.7147 446.944 93.184C447.222 93.6533 447.6 94.0213 448.08 94.288C448.571 94.544 449.12 94.672 449.728 94.672ZM464.537 92.144H457.497C457.561 93.0187 457.897 93.728 458.505 94.272C459.113 94.8053 459.881 95.072 460.809 95.072C461.332 95.072 461.812 94.9813 462.249 94.8C462.686 94.608 463.065 94.3307 463.385 93.968L464.025 94.704C463.652 95.152 463.182 95.4933 462.617 95.728C462.062 95.9627 461.449 96.08 460.777 96.08C459.913 96.08 459.145 95.8987 458.473 95.536C457.812 95.1627 457.294 94.6507 456.921 94C456.548 93.3493 456.361 92.6133 456.361 91.792C456.361 90.9707 456.537 90.2347 456.889 89.584C457.252 88.9333 457.742 88.4267 458.361 88.064C458.99 87.7013 459.694 87.52 460.473 87.52C461.252 87.52 461.95 87.7013 462.569 88.064C463.188 88.4267 463.673 88.9333 464.025 89.584C464.377 90.224 464.553 90.96 464.553 91.792L464.537 92.144ZM460.473 88.496C459.662 88.496 458.98 88.7573 458.425 89.28C457.881 89.792 457.572 90.464 457.497 91.296H463.465C463.39 90.464 463.076 89.792 462.521 89.28C461.977 88.7573 461.294 88.496 460.473 88.496ZM478.845 87.584V94.976C478.845 96.4053 478.493 97.4613 477.789 98.144C477.095 98.8373 476.045 99.184 474.637 99.184C473.858 99.184 473.117 99.0667 472.413 98.832C471.719 98.608 471.154 98.2933 470.717 97.888L471.293 97.024C471.698 97.3867 472.189 97.6693 472.765 97.872C473.351 98.0747 473.965 98.176 474.605 98.176C475.671 98.176 476.455 97.9253 476.957 97.424C477.458 96.9333 477.709 96.1653 477.709 95.12V94.048C477.357 94.5813 476.893 94.9867 476.317 95.264C475.751 95.5413 475.122 95.68 474.429 95.68C473.639 95.68 472.919 95.5093 472.269 95.168C471.629 94.816 471.122 94.3307 470.749 93.712C470.386 93.0827 470.205 92.3733 470.205 91.584C470.205 90.7947 470.386 90.0907 470.749 89.472C471.122 88.8533 471.629 88.3733 472.269 88.032C472.909 87.6907 473.629 87.52 474.429 87.52C475.143 87.52 475.789 87.664 476.365 87.952C476.941 88.24 477.405 88.656 477.757 89.2V87.584H478.845ZM474.541 94.672C475.149 94.672 475.698 94.544 476.189 94.288C476.679 94.0213 477.058 93.6533 477.325 93.184C477.602 92.7147 477.741 92.1813 477.741 91.584C477.741 90.9867 477.602 90.4587 477.325 90C477.058 89.5307 476.679 89.168 476.189 88.912C475.709 88.6453 475.159 88.512 474.541 88.512C473.933 88.512 473.383 88.64 472.893 88.896C472.413 89.152 472.034 89.5147 471.757 89.984C471.49 90.4533 471.357 90.9867 471.357 91.584C471.357 92.1813 471.49 92.7147 471.757 93.184C472.034 93.6533 472.413 94.0213 472.893 94.288C473.383 94.544 473.933 94.672 474.541 94.672ZM483.11 89.232C483.376 88.6667 483.771 88.24 484.294 87.952C484.827 87.664 485.483 87.52 486.262 87.52V88.624L485.99 88.608C485.104 88.608 484.411 88.88 483.91 89.424C483.408 89.968 483.158 90.7307 483.158 91.712V96H482.022V87.584H483.11V89.232ZM491.247 87.52C492.345 87.52 493.188 87.7973 493.775 88.352C494.361 88.896 494.655 89.7067 494.655 90.784V96H493.567V94.688C493.311 95.1253 492.932 95.4667 492.431 95.712C491.94 95.9573 491.353 96.08 490.671 96.08C489.732 96.08 488.985 95.856 488.431 95.408C487.876 94.96 487.599 94.368 487.599 93.632C487.599 92.9173 487.855 92.3413 488.367 91.904C488.889 91.4667 489.716 91.248 490.847 91.248H493.519V90.736C493.519 90.0107 493.316 89.4613 492.911 89.088C492.505 88.704 491.913 88.512 491.135 88.512C490.601 88.512 490.089 88.6027 489.599 88.784C489.108 88.9547 488.687 89.1947 488.335 89.504L487.823 88.656C488.249 88.2933 488.761 88.016 489.359 87.824C489.956 87.6213 490.585 87.52 491.247 87.52ZM490.847 95.184C491.487 95.184 492.036 95.04 492.495 94.752C492.953 94.4533 493.295 94.0267 493.519 93.472V92.096H490.879C489.439 92.096 488.719 92.5973 488.719 93.6C488.719 94.0907 488.905 94.48 489.279 94.768C489.652 95.0453 490.175 95.184 490.847 95.184ZM505.452 84.128V96H504.364V94.336C504.022 94.9013 503.569 95.3333 503.004 95.632C502.449 95.9307 501.82 96.08 501.116 96.08C500.326 96.08 499.612 95.8987 498.972 95.536C498.332 95.1733 497.83 94.6667 497.468 94.016C497.105 93.3653 496.924 92.624 496.924 91.792C496.924 90.96 497.105 90.2187 497.468 89.568C497.83 88.9173 498.332 88.416 498.972 88.064C499.612 87.7013 500.326 87.52 501.116 87.52C501.798 87.52 502.412 87.664 502.956 87.952C503.51 88.2293 503.964 88.64 504.316 89.184V84.128H505.452ZM501.212 95.072C501.798 95.072 502.326 94.9387 502.796 94.672C503.276 94.3947 503.649 94.0053 503.916 93.504C504.193 93.0027 504.332 92.432 504.332 91.792C504.332 91.152 504.193 90.5813 503.916 90.08C503.649 89.5787 503.276 89.1947 502.796 88.928C502.326 88.6507 501.798 88.512 501.212 88.512C500.614 88.512 500.076 88.6507 499.596 88.928C499.126 89.1947 498.753 89.5787 498.476 90.08C498.209 90.5813 498.076 91.152 498.076 91.792C498.076 92.432 498.209 93.0027 498.476 93.504C498.753 94.0053 499.126 94.3947 499.596 94.672C500.076 94.9387 500.614 95.072 501.212 95.072ZM515.943 92.144H508.903C508.967 93.0187 509.303 93.728 509.911 94.272C510.519 94.8053 511.287 95.072 512.215 95.072C512.738 95.072 513.218 94.9813 513.655 94.8C514.093 94.608 514.471 94.3307 514.791 93.968L515.431 94.704C515.058 95.152 514.589 95.4933 514.023 95.728C513.469 95.9627 512.855 96.08 512.183 96.08C511.319 96.08 510.551 95.8987 509.879 95.536C509.218 95.1627 508.701 94.6507 508.327 94C507.954 93.3493 507.767 92.6133 507.767 91.792C507.767 90.9707 507.943 90.2347 508.295 89.584C508.658 88.9333 509.149 88.4267 509.767 88.064C510.397 87.7013 511.101 87.52 511.879 87.52C512.658 87.52 513.357 87.7013 513.975 88.064C514.594 88.4267 515.079 88.9333 515.431 89.584C515.783 90.224 515.959 90.96 515.959 91.792L515.943 92.144ZM511.879 88.496C511.069 88.496 510.386 88.7573 509.831 89.28C509.287 89.792 508.978 90.464 508.903 91.296H514.871C514.797 90.464 514.482 89.792 513.927 89.28C513.383 88.7573 512.701 88.496 511.879 88.496Z" fill="#2E3A59"/>
<circle cx="389" cy="91" r="4" fill="#3366FF"/>
<g filter="url(#filter1_b_942_425)">
<rect x="383" y="165" width="50" height="36" rx="4" fill="#2E3A59" fill-opacity="0.4"/>
</g>
<path d="M403.424 176.316C404.385 176.409 405.118 176.708 405.622 177.212C406.126 177.707 406.378 178.341 406.378 179.116C406.378 179.676 406.238 180.185 405.958 180.642C405.678 181.09 405.258 181.449 404.698 181.72C404.147 181.981 403.471 182.112 402.668 182.112C401.968 182.112 401.296 182.009 400.652 181.804C400.008 181.589 399.481 181.295 399.07 180.922L399.714 179.816C400.05 180.133 400.479 180.39 401.002 180.586C401.525 180.773 402.08 180.866 402.668 180.866C403.396 180.866 403.961 180.712 404.362 180.404C404.773 180.096 404.978 179.671 404.978 179.13C404.978 178.589 404.777 178.169 404.376 177.87C403.975 177.571 403.368 177.422 402.556 177.422H401.772V176.442L404.236 173.418H399.518V172.2H405.986V173.152L403.424 176.316ZM408.608 182.084C408.346 182.084 408.122 181.995 407.936 181.818C407.749 181.631 407.656 181.398 407.656 181.118C407.656 180.847 407.749 180.623 407.936 180.446C408.122 180.259 408.346 180.166 408.608 180.166C408.869 180.166 409.088 180.255 409.266 180.432C409.443 180.609 409.532 180.838 409.532 181.118C409.532 181.398 409.438 181.631 409.252 181.818C409.074 181.995 408.86 182.084 408.608 182.084ZM403.676 202.112C402.901 202.112 402.211 201.916 401.604 201.524C401.007 201.123 400.535 200.544 400.19 199.788C399.845 199.032 399.672 198.136 399.672 197.1C399.672 196.064 399.845 195.168 400.19 194.412C400.535 193.656 401.007 193.082 401.604 192.69C402.211 192.289 402.901 192.088 403.676 192.088C404.441 192.088 405.123 192.289 405.72 192.69C406.327 193.082 406.803 193.656 407.148 194.412C407.493 195.168 407.666 196.064 407.666 197.1C407.666 198.136 407.493 199.032 407.148 199.788C406.803 200.544 406.327 201.123 405.72 201.524C405.123 201.916 404.441 202.112 403.676 202.112ZM403.676 200.866C404.46 200.866 405.085 200.544 405.552 199.9C406.028 199.256 406.266 198.323 406.266 197.1C406.266 195.877 406.028 194.944 405.552 194.3C405.085 193.656 404.46 193.334 403.676 193.334C402.883 193.334 402.248 193.656 401.772 194.3C401.305 194.944 401.072 195.877 401.072 197.1C401.072 198.323 401.305 199.256 401.772 199.9C402.248 200.544 402.883 200.866 403.676 200.866Z" fill="white"/>
<path d="M399.476 186.6C400.532 186.6 401.36 186.852 401.96 187.356C402.56 187.852 402.86 188.544 402.86 189.432C402.86 190.312 402.56 191.004 401.96 191.508C401.36 192.004 400.532 192.252 399.476 192.252H397.076V195H396.464V186.6H399.476ZM399.476 191.7C400.372 191.7 401.056 191.504 401.528 191.112C402 190.72 402.236 190.16 402.236 189.432C402.236 188.704 402 188.144 401.528 187.752C401.056 187.352 400.372 187.152 399.476 187.152H397.076V191.7H399.476ZM407.146 195.048C406.554 195.048 406.018 194.912 405.538 194.64C405.066 194.368 404.694 193.992 404.422 193.512C404.15 193.024 404.014 192.476 404.014 191.868C404.014 191.26 404.15 190.716 404.422 190.236C404.694 189.748 405.066 189.368 405.538 189.096C406.018 188.824 406.554 188.688 407.146 188.688C407.738 188.688 408.27 188.824 408.742 189.096C409.222 189.368 409.598 189.748 409.87 190.236C410.142 190.716 410.278 191.26 410.278 191.868C410.278 192.476 410.142 193.024 409.87 193.512C409.598 193.992 409.222 194.368 408.742 194.64C408.27 194.912 407.738 195.048 407.146 195.048ZM407.146 194.508C407.626 194.508 408.054 194.396 408.43 194.172C408.814 193.948 409.114 193.636 409.33 193.236C409.554 192.836 409.666 192.38 409.666 191.868C409.666 191.356 409.554 190.9 409.33 190.5C409.114 190.1 408.814 189.788 408.43 189.564C408.054 189.34 407.626 189.228 407.146 189.228C406.666 189.228 406.234 189.34 405.85 189.564C405.474 189.788 405.174 190.1 404.95 190.5C404.734 190.9 404.626 191.356 404.626 191.868C404.626 192.38 404.734 192.836 404.95 193.236C405.174 193.636 405.474 193.948 405.85 194.172C406.234 194.396 406.666 194.508 407.146 194.508ZM412.139 188.736H412.739V195H412.139V188.736ZM412.439 187.212C412.303 187.212 412.187 187.168 412.091 187.08C411.995 186.984 411.947 186.868 411.947 186.732C411.947 186.596 411.995 186.48 412.091 186.384C412.187 186.288 412.303 186.24 412.439 186.24C412.575 186.24 412.691 186.288 412.787 186.384C412.883 186.472 412.931 186.584 412.931 186.72C412.931 186.856 412.883 186.972 412.787 187.068C412.691 187.164 412.575 187.212 412.439 187.212ZM399.332 204.688C400.116 204.688 400.736 204.916 401.192 205.372C401.648 205.828 401.876 206.484 401.876 207.34V211H401.276V207.388C401.276 206.684 401.096 206.148 400.736 205.78C400.384 205.412 399.888 205.228 399.248 205.228C398.512 205.228 397.932 205.448 397.508 205.888C397.084 206.328 396.872 206.92 396.872 207.664V211H396.272V204.736H396.848V206.092C397.064 205.652 397.384 205.308 397.808 205.06C398.24 204.812 398.748 204.688 399.332 204.688ZM407.454 210.604C407.302 210.748 407.11 210.86 406.878 210.94C406.654 211.012 406.418 211.048 406.17 211.048C405.626 211.048 405.206 210.9 404.91 210.604C404.614 210.3 404.466 209.88 404.466 209.344V205.252H403.314V204.736H404.466V203.368H405.066V204.736H407.058V205.252H405.066V209.284C405.066 209.692 405.162 210.004 405.354 210.22C405.554 210.428 405.846 210.532 406.23 210.532C406.622 210.532 406.946 210.416 407.202 210.184L407.454 210.604Z" fill="white"/>
<path d="M509.742 32.382H504.282L503.106 35H502.028L506.508 25.2H507.53L512.01 35H510.918L509.742 32.382ZM509.364 31.542L507.012 26.278L504.66 31.542H509.364ZM519.92 27.636V35H518.968V33.656C518.707 34.104 518.348 34.454 517.89 34.706C517.433 34.9487 516.91 35.07 516.322 35.07C515.361 35.07 514.6 34.804 514.04 34.272C513.49 33.7307 513.214 32.942 513.214 31.906V27.636H514.208V31.808C514.208 32.5827 514.4 33.1707 514.782 33.572C515.165 33.9733 515.711 34.174 516.42 34.174C517.195 34.174 517.806 33.9407 518.254 33.474C518.702 32.998 518.926 32.34 518.926 31.5V27.636H519.92ZM529.522 27.636V34.104C529.522 35.3547 529.214 36.2787 528.598 36.876C527.992 37.4827 527.072 37.786 525.84 37.786C525.159 37.786 524.51 37.6833 523.894 37.478C523.288 37.282 522.793 37.0067 522.41 36.652L522.914 35.896C523.269 36.2133 523.698 36.4607 524.202 36.638C524.716 36.8153 525.252 36.904 525.812 36.904C526.746 36.904 527.432 36.6847 527.87 36.246C528.309 35.8167 528.528 35.1447 528.528 34.23V33.292C528.22 33.7587 527.814 34.1133 527.31 34.356C526.816 34.5987 526.265 34.72 525.658 34.72C524.968 34.72 524.338 34.5707 523.768 34.272C523.208 33.964 522.765 33.5393 522.438 32.998C522.121 32.4473 521.962 31.8267 521.962 31.136C521.962 30.4453 522.121 29.8293 522.438 29.288C522.765 28.7467 523.208 28.3267 523.768 28.028C524.328 27.7293 524.958 27.58 525.658 27.58C526.284 27.58 526.848 27.706 527.352 27.958C527.856 28.21 528.262 28.574 528.57 29.05V27.636H529.522ZM525.756 33.838C526.288 33.838 526.769 33.726 527.198 33.502C527.628 33.2687 527.959 32.9467 528.192 32.536C528.435 32.1253 528.556 31.6587 528.556 31.136C528.556 30.6133 528.435 30.1513 528.192 29.75C527.959 29.3393 527.628 29.022 527.198 28.798C526.778 28.5647 526.298 28.448 525.756 28.448C525.224 28.448 524.744 28.56 524.314 28.784C523.894 29.008 523.563 29.3253 523.32 29.736C523.087 30.1467 522.97 30.6133 522.97 31.136C522.97 31.6587 523.087 32.1253 523.32 32.536C523.563 32.9467 523.894 33.2687 524.314 33.502C524.744 33.726 525.224 33.838 525.756 33.838ZM542 34.104V35H535.126V34.286L539.2 30.296C539.713 29.792 540.059 29.358 540.236 28.994C540.423 28.6207 540.516 28.2473 540.516 27.874C540.516 27.2953 540.315 26.8473 539.914 26.53C539.522 26.2033 538.957 26.04 538.22 26.04C537.072 26.04 536.181 26.404 535.546 27.132L534.832 26.516C535.215 26.068 535.7 25.7227 536.288 25.48C536.885 25.2373 537.557 25.116 538.304 25.116C539.303 25.116 540.091 25.354 540.67 25.83C541.258 26.2967 541.552 26.9407 541.552 27.762C541.552 28.266 541.44 28.7513 541.216 29.218C540.992 29.6847 540.567 30.2213 539.942 30.828L536.61 34.104H542ZM547.116 35.084C546.36 35.084 545.684 34.8833 545.086 34.482C544.498 34.0807 544.036 33.5067 543.7 32.76C543.374 32.004 543.21 31.1173 543.21 30.1C543.21 29.0827 543.374 28.2007 543.7 27.454C544.036 26.698 544.498 26.1193 545.086 25.718C545.684 25.3167 546.36 25.116 547.116 25.116C547.872 25.116 548.544 25.3167 549.132 25.718C549.73 26.1193 550.196 26.698 550.532 27.454C550.868 28.2007 551.036 29.0827 551.036 30.1C551.036 31.1173 550.868 32.004 550.532 32.76C550.196 33.5067 549.73 34.0807 549.132 34.482C548.544 34.8833 547.872 35.084 547.116 35.084ZM547.116 34.16C547.686 34.16 548.185 34.0013 548.614 33.684C549.053 33.3667 549.394 32.9047 549.636 32.298C549.879 31.6913 550 30.9587 550 30.1C550 29.2413 549.879 28.5087 549.636 27.902C549.394 27.2953 549.053 26.8333 548.614 26.516C548.185 26.1987 547.686 26.04 547.116 26.04C546.547 26.04 546.043 26.1987 545.604 26.516C545.175 26.8333 544.839 27.2953 544.596 27.902C544.354 28.5087 544.232 29.2413 544.232 30.1C544.232 30.9587 544.354 31.6913 544.596 32.298C544.839 32.9047 545.175 33.3667 545.604 33.684C546.043 34.0013 546.547 34.16 547.116 34.16ZM559.145 34.104V35H552.271V34.286L556.345 30.296C556.858 29.792 557.203 29.358 557.381 28.994C557.567 28.6207 557.661 28.2473 557.661 27.874C557.661 27.2953 557.46 26.8473 557.059 26.53C556.667 26.2033 556.102 26.04 555.365 26.04C554.217 26.04 553.325 26.404 552.691 27.132L551.977 26.516C552.359 26.068 552.845 25.7227 553.433 25.48C554.03 25.2373 554.702 25.116 555.449 25.116C556.447 25.116 557.236 25.354 557.815 25.83C558.403 26.2967 558.697 26.9407 558.697 27.762C558.697 28.266 558.585 28.7513 558.361 29.218C558.137 29.6847 557.712 30.2213 557.087 30.828L553.755 34.104H559.145ZM563.126 25.2V35H562.118V26.096H559.808V25.2H563.126Z" fill="#2E3A59"/>
<path fill-rule="evenodd" clip-rule="evenodd" d="M574.5 25C574.244 25 573.988 25.098 573.793 25.293C573.402 25.684 573.402 26.316 573.793 26.707L577.098 30.012L573.918 33.305C573.535 33.703 573.546 34.336 573.943 34.719C574.341 35.102 574.974 35.091 575.357 34.695L579.219 30.695C579.598 30.302 579.593 29.679 579.207 29.293L575.207 25.293C575.012 25.098 574.756 25 574.5 25Z" fill="#2E3A59"/>
<path fill-rule="evenodd" clip-rule="evenodd" d="M487.362 25C487.1 25 486.839 25.102 486.643 25.305L482.78 29.305C482.402 29.698 482.407 30.321 482.793 30.707L486.793 34.707C487.183 35.098 487.816 35.098 488.207 34.707C488.597 34.316 488.597 33.684 488.207 33.293L484.902 29.988L488.081 26.695C488.465 26.297 488.454 25.664 488.057 25.281C487.862 25.093 487.612 25 487.362 25Z" fill="#2E3A59"/>
<defs>
<filter id="filter0_b_942_425" x="351" y="155" width="54" height="257" filterUnits="userSpaceOnUse" color-interpolation-filters="sRGB">
<feFlood flood-opacity="0" result="BackgroundImageFix"/>
<feGaussianBlur in="BackgroundImage" stdDeviation="2"/>
<feComposite in2="SourceAlpha" operator="in" result="effect1_backgroundBlur_942_425"/>
<feBlend mode="normal" in="SourceGraphic" in2="effect1_backgroundBlur_942_425" result="shape"/>
</filter>
<filter id="filter1_b_942_425" x="375" y="157" width="66" height="52" filterUnits="userSpaceOnUse" color-interpolation-filters="sRGB">
<feFlood flood-opacity="0" result="BackgroundImageFix"/>
<feGaussianBlur in="BackgroundImage" stdDeviation="4"/>
<feComposite in2="SourceAlpha" operator="in" result="effect1_backgroundBlur_942_425"/>
<feBlend mode="normal" in="SourceGraphic" in2="effect1_backgroundBlur_942_425" result="shape"/>
</filter>
<linearGradient id="paint0_linear_942_425" x1="378" y1="291.515" x2="378" y2="159" gradientUnits="userSpaceOnUse">
<stop stop-color="#8791AB" stop-opacity="0.4"/>
<stop offset="1" stop-color="#8791AB" stop-opacity="0"/>
</linearGradient>
</defs>
</svg>
