<svg width="48" height="48" viewBox="0 0 48 48" fill="none" xmlns="http://www.w3.org/2000/svg">
<rect width="48" height="48" rx="8" fill="#FFB978"/>
<path fill-rule="evenodd" clip-rule="evenodd" d="M30 31.0289C28.897 31.0289 28 30.1319 28 29.0289C28 27.9259 28.897 27.0289 30 27.0289C31.103 27.0289 32 27.9259 32 29.0289C32 30.1319 31.103 31.0289 30 31.0289ZM18 27.0289C19.103 27.0289 20 27.9259 20 29.0289C20 30.1319 19.103 31.0289 18 31.0289C16.897 31.0289 16 30.1319 16 29.0289C16 27.9259 16.897 27.0289 18 27.0289ZM24 14.0289C18.486 14.0289 14 18.6789 14 24.3949V29.0289C14 31.2349 15.794 33.0289 18 33.0289C20.206 33.0289 22 31.2349 22 29.0289C22 26.8229 20.206 25.0289 18 25.0289C17.268 25.0289 16.591 25.2409 16 25.5859V24.3949C16 19.7819 19.589 16.0289 24 16.0289C28.411 16.0289 32 19.7819 32 24.3949V25.5859C31.409 25.2409 30.732 25.0289 30 25.0289C27.794 25.0289 26 26.8229 26 29.0289C26 31.2349 27.794 33.0289 30 33.0289C32.206 33.0289 34 31.2349 34 29.0289V24.3949C34 18.6789 29.514 14.0289 24 14.0289Z" fill="white"/>
</svg>
