<svg width="48" height="49" viewBox="0 0 48 49" fill="none" xmlns="http://www.w3.org/2000/svg">
<rect width="48" height="48.1157" rx="8" fill="#778DFF"/>
<path d="M24 31.0289C27.31 31.0289 30 28.3389 30 25.0289V20.0289C30 16.7189 27.31 14.0289 24 14.0289C20.69 14.0289 18 16.7189 18 20.0289V25.0289C18 28.3389 20.69 31.0289 24 31.0289Z" stroke="white" stroke-width="1.5" stroke-linecap="round" stroke-linejoin="round"/>
<path d="M15 23.0289V25.0289C15 29.9989 19.03 34.0289 24 34.0289C28.97 34.0289 33 29.9989 33 25.0289V23.0289" stroke="white" stroke-width="1.5" stroke-linecap="round" stroke-linejoin="round"/>
<path d="M21.1099 19.5089C22.8899 18.8589 24.8299 18.8589 26.6099 19.5089" stroke="white" stroke-width="1.5" stroke-linecap="round" stroke-linejoin="round"/>
<path d="M22.0298 22.5089C23.2298 22.1789 24.4998 22.1789 25.6998 22.5089" stroke="white" stroke-width="1.5" stroke-linecap="round" stroke-linejoin="round"/>
</svg>
